# Blender 4.1.0
# www.blender.org
mtllib WebcamMonitor_4x3.mtl
o Cube
v 1.271137 0.962446 0.224202
v 1.271137 -0.923784 0.224202
v -1.243835 0.962446 0.224202
v -1.243835 -0.923784 0.224202
v -1.119512 -0.830541 0.116113
v -1.119512 0.869203 0.116113
v 1.146813 0.869203 0.116113
v 1.146813 -0.830541 0.116113
v -1.243835 -0.923784 0.153196
v -1.243835 0.962446 0.153196
v 1.271137 0.962446 0.153196
v 1.271137 -0.923784 0.153196
v 1.019640 0.962446 0.168992
v 0.768143 0.962446 0.182098
v 0.516645 0.962446 0.191952
v 0.265148 0.962446 0.198083
v 0.013651 0.962446 0.200165
v -0.237846 0.962446 0.198083
v -0.489344 0.962446 0.191952
v -0.740841 0.962446 0.182098
v -0.992338 0.962446 0.168992
v -0.992338 -0.923784 0.168992
v -0.740841 -0.923784 0.182099
v -0.489344 -0.923784 0.191952
v -0.237846 -0.923784 0.198083
v 0.013651 -0.923784 0.200165
v 0.265148 -0.923784 0.198083
v 0.516645 -0.923784 0.191952
v 0.768143 -0.923784 0.182098
v 1.019640 -0.923784 0.168992
v -1.243835 -0.735161 0.168992
v -1.243835 -0.546538 0.182099
v -1.243835 -0.357915 0.191952
v -1.243835 -0.169292 0.198083
v -1.243835 0.019331 0.200165
v -1.243835 0.207954 0.198083
v -1.243835 0.396577 0.191952
v -1.243835 0.585200 0.182098
v -1.243835 0.773823 0.168992
v 1.271137 0.773823 0.168992
v 1.271137 0.585200 0.182098
v 1.271137 0.396577 0.191952
v 1.271137 0.207954 0.198083
v 1.271137 0.019331 0.200165
v 1.271137 -0.169292 0.198083
v 1.271137 -0.357915 0.191952
v 1.271137 -0.546538 0.182098
v 1.271137 -0.735161 0.168992
v 1.019640 0.773823 0.185988
v 1.019640 0.585200 0.200165
v 1.019640 0.396577 0.210896
v 1.019640 0.207954 0.217616
v 1.019640 0.019331 0.219907
v 1.019640 -0.169292 0.217616
v 1.019640 -0.357915 0.210896
v 1.019640 -0.546538 0.200165
v 1.019640 -0.735161 0.185988
v 0.768143 0.773823 0.200165
v 0.768143 0.585200 0.215351
v 0.768143 0.396577 0.226953
v 0.768143 0.207954 0.234286
v 0.768143 0.019331 0.236803
v 0.768143 -0.169292 0.234286
v 0.768143 -0.357915 0.226953
v 0.768143 -0.546538 0.215351
v 0.768143 -0.735161 0.200165
v 0.516645 0.773823 0.210896
v 0.516645 0.585200 0.226953
v 0.516645 0.396577 0.239359
v 0.516645 0.207954 0.247299
v 0.516645 0.019331 0.250051
v 0.516645 -0.169292 0.247299
v 0.516645 -0.357915 0.239359
v 0.516645 -0.546538 0.226953
v 0.516645 -0.735161 0.210896
v 0.265148 0.773823 0.217616
v 0.265148 0.585200 0.234286
v 0.265148 0.396577 0.247299
v 0.265148 0.207954 0.255754
v 0.265148 0.019331 0.258733
v 0.265148 -0.169292 0.255754
v 0.265148 -0.357915 0.247299
v 0.265148 -0.546538 0.234286
v 0.265148 -0.735161 0.217616
v 0.013651 0.773823 0.219907
v 0.013651 0.585200 0.236803
v 0.013651 0.396577 0.250051
v 0.013651 0.207954 0.258733
v 0.013651 0.019331 0.261849
v 0.013651 -0.169292 0.258733
v 0.013651 -0.357915 0.250051
v 0.013651 -0.546538 0.236803
v 0.013651 -0.735161 0.219907
v -0.237846 0.773823 0.217616
v -0.237846 0.585200 0.234286
v -0.237846 0.396577 0.247299
v -0.237846 0.207954 0.255754
v -0.237846 0.019331 0.258733
v -0.237846 -0.169292 0.255754
v -0.237846 -0.357915 0.247299
v -0.237846 -0.546538 0.234286
v -0.237846 -0.735161 0.217616
v -0.489344 0.773823 0.210896
v -0.489344 0.585200 0.226953
v -0.489344 0.396577 0.239359
v -0.489344 0.207954 0.247299
v -0.489344 0.019331 0.250051
v -0.489344 -0.169292 0.247299
v -0.489344 -0.357915 0.239359
v -0.489344 -0.546538 0.226953
v -0.489344 -0.735161 0.210896
v -0.740841 0.773823 0.200165
v -0.740841 0.585200 0.215351
v -0.740841 0.396577 0.226953
v -0.740841 0.207954 0.234286
v -0.740841 0.019331 0.236803
v -0.740841 -0.169292 0.234286
v -0.740841 -0.357915 0.226953
v -0.740841 -0.546538 0.215351
v -0.740841 -0.735161 0.200165
v -0.992338 0.773823 0.185988
v -0.992338 0.585200 0.200165
v -0.992338 0.396577 0.210896
v -0.992338 0.207954 0.217616
v -0.992338 0.019331 0.219907
v -0.992338 -0.169292 0.217616
v -0.992338 -0.357915 0.210896
v -0.992338 -0.546538 0.200165
v -0.992338 -0.735161 0.185988
v 0.996614 0.756553 -1.042130
v 1.345331 1.069331 -0.458719
v 1.413651 1.018091 -0.458719
v 1.345331 1.054323 -0.470796
v 1.384776 1.047675 -0.468580
v 1.393641 1.054323 -0.458719
v 1.393641 1.018091 -0.470796
v 1.345331 -1.030669 -0.458719
v 0.996614 -0.717891 -1.042130
v 1.413651 -0.979429 -0.458719
v 1.345331 -1.015661 -0.470796
v 1.384776 -1.009012 -0.468580
v 1.393641 -0.979429 -0.470796
v 1.393641 -1.015661 -0.458719
v -0.969312 0.756553 -1.042130
v -1.386349 1.018091 -0.458719
v -1.318029 1.069331 -0.458719
v -1.366339 1.018091 -0.470796
v -1.357474 1.047675 -0.468580
v -1.366339 1.054323 -0.458719
v -1.318029 1.054323 -0.470796
v -1.386349 -0.979429 -0.458719
v -0.969312 -0.717891 -1.042130
v -1.318029 -1.030669 -0.458719
v -1.366339 -0.979429 -0.470796
v -1.357474 -1.009012 -0.468580
v -1.318029 -1.015661 -0.470796
v -1.366339 -1.015661 -0.458719
v -1.318029 -1.030669 0.207121
v -1.318029 -0.979429 0.224202
v -1.386349 -0.979429 0.207121
v -1.318029 -1.015661 0.219199
v -1.357474 -1.009012 0.216983
v -1.366339 -0.979429 0.219199
v -1.366339 -1.015661 0.207122
v -1.318029 1.018091 0.224202
v -1.318029 1.069331 0.207121
v -1.386349 1.018091 0.207121
v -1.318029 1.054323 0.219199
v -1.357474 1.047675 0.216983
v -1.366339 1.054323 0.207121
v -1.366339 1.018091 0.219199
v 1.413651 1.018091 0.207121
v 1.345331 1.069331 0.207121
v 1.345331 1.018091 0.224202
v 1.393641 1.054323 0.207122
v 1.384776 1.047675 0.216983
v 1.345331 1.054323 0.219199
v 1.393641 1.018091 0.219199
v 1.345331 -0.979429 0.224202
v 1.345331 -1.030669 0.207121
v 1.413651 -0.979429 0.207121
v 1.345331 -1.015661 0.219199
v 1.384776 -1.009013 0.216983
v 1.393641 -1.015661 0.207121
v 1.393641 -0.979429 0.219199
v -1.318029 -0.979429 -0.475799
v 1.345331 -0.979429 -0.475799
v 1.345331 1.018091 -0.475799
v -1.318029 1.018091 -0.475799
v -1.012130 -0.750005 -1.042130
v 1.039432 -0.750005 -1.042130
v 1.039432 0.788667 -1.042130
v -1.012130 0.788667 -1.042130
v -0.593027 -0.637773 -0.989981
v -0.079279 -0.637773 -0.989981
v -0.079279 -0.314284 -0.989981
v -0.593027 -0.314284 -0.989981
v -0.969312 -0.717891 -0.989981
v 0.996614 -0.717891 -0.989981
v 0.996614 0.756553 -0.989981
v -0.969312 0.756553 -0.989981
v -0.593027 -0.637773 -0.952370
v -0.079279 -0.637773 -0.952370
v -0.079279 -0.314284 -0.952370
v -0.593027 -0.314284 -0.952370
vn -0.1300 -0.9060 -0.4027
vn 0.1300 -0.9060 -0.4027
vn 0.1300 -0.9061 0.4027
vn -0.1300 -0.9060 0.4027
vn -0.0000 0.7572 0.6532
vn -0.0000 -0.0000 1.0000
vn -0.0479 0.0651 0.9967
vn -0.0479 -0.0651 0.9967
vn -0.8690 -0.2109 0.4476
vn -0.8690 0.2109 0.4476
vn -0.8690 0.2109 -0.4476
vn -0.8690 -0.2109 -0.4476
vn 0.1300 0.9060 -0.4027
vn -0.1300 0.9060 -0.4027
vn -0.1300 0.9061 0.4027
vn 0.1300 0.9060 0.4027
vn 0.8690 -0.2109 -0.4476
vn 0.8690 0.2109 -0.4476
vn 0.8690 0.2109 0.4476
vn 0.8690 -0.2109 0.4476
vn 0.0479 -0.0651 0.9967
vn 0.0479 0.0651 0.9967
vn -0.6561 -0.0000 0.7547
vn -0.0000 -0.7572 0.6532
vn 0.6561 -0.0000 0.7547
vn -0.0616 0.0821 0.9947
vn -0.0594 0.0894 0.9942
vn -0.0648 0.0864 0.9941
vn -0.0671 0.0792 0.9946
vn 0.0671 0.0792 0.9946
vn 0.0648 0.0864 0.9941
vn 0.0594 0.0894 0.9942
vn 0.0616 0.0821 0.9947
vn 0.0473 0.0950 0.9944
vn 0.0492 0.0875 0.9949
vn 0.0331 0.0995 0.9945
vn 0.0345 0.0920 0.9952
vn 0.0170 0.1025 0.9946
vn 0.0179 0.0950 0.9953
vn -0.0000 0.1036 0.9946
vn -0.0000 0.0961 0.9954
vn -0.0170 0.1025 0.9946
vn -0.0179 0.0950 0.9953
vn -0.0331 0.0995 0.9945
vn -0.0345 0.0920 0.9952
vn -0.0473 0.0950 0.9944
vn -0.0492 0.0875 0.9949
vn -0.0473 -0.0950 0.9944
vn -0.0492 -0.0875 0.9949
vn -0.0616 -0.0821 0.9947
vn -0.0594 -0.0894 0.9942
vn -0.0529 -0.0706 0.9961
vn -0.0657 -0.0657 0.9957
vn -0.0562 -0.0500 0.9972
vn -0.0691 -0.0461 0.9965
vn -0.0585 -0.0261 0.9979
vn -0.0714 -0.0238 0.9972
vn -0.0594 -0.0000 0.9982
vn -0.0722 -0.0000 0.9974
vn -0.0585 0.0261 0.9979
vn -0.0714 0.0238 0.9972
vn -0.0562 0.0500 0.9972
vn -0.0691 0.0461 0.9965
vn -0.0529 0.0706 0.9961
vn -0.0657 0.0657 0.9957
vn -0.0331 -0.0995 0.9945
vn -0.0345 -0.0920 0.9952
vn -0.0375 -0.0749 0.9965
vn -0.0402 -0.0536 0.9978
vn -0.0423 -0.0282 0.9987
vn -0.0431 -0.0000 0.9991
vn -0.0423 0.0282 0.9987
vn -0.0402 0.0536 0.9978
vn -0.0375 0.0749 0.9965
vn -0.0170 -0.1025 0.9946
vn -0.0179 -0.0950 0.9953
vn -0.0195 -0.0779 0.9968
vn -0.0212 -0.0564 0.9982
vn -0.0225 -0.0300 0.9993
vn -0.0231 -0.0000 0.9997
vn -0.0225 0.0300 0.9993
vn -0.0212 0.0564 0.9982
vn -0.0195 0.0779 0.9968
vn -0.0000 -0.1036 0.9946
vn -0.0000 -0.0961 0.9954
vn -0.0000 -0.0790 0.9969
vn -0.0000 -0.0574 0.9984
vn -0.0000 -0.0308 0.9995
vn -0.0000 0.0308 0.9995
vn -0.0000 0.0574 0.9984
vn -0.0000 0.0790 0.9969
vn 0.0170 -0.1025 0.9946
vn 0.0179 -0.0950 0.9953
vn 0.0195 -0.0779 0.9968
vn 0.0212 -0.0564 0.9982
vn 0.0225 -0.0300 0.9993
vn 0.0231 -0.0000 0.9997
vn 0.0225 0.0300 0.9993
vn 0.0212 0.0564 0.9982
vn 0.0195 0.0779 0.9968
vn 0.0331 -0.0995 0.9945
vn 0.0345 -0.0920 0.9952
vn 0.0375 -0.0749 0.9965
vn 0.0402 -0.0536 0.9978
vn 0.0423 -0.0282 0.9987
vn 0.0431 -0.0000 0.9991
vn 0.0423 0.0282 0.9987
vn 0.0402 0.0536 0.9978
vn 0.0375 0.0749 0.9965
vn 0.0473 -0.0950 0.9944
vn 0.0492 -0.0875 0.9949
vn 0.0529 -0.0706 0.9961
vn 0.0562 -0.0500 0.9972
vn 0.0585 -0.0261 0.9979
vn 0.0594 -0.0000 0.9982
vn 0.0585 0.0261 0.9979
vn 0.0562 0.0500 0.9972
vn 0.0529 0.0706 0.9961
vn 0.0594 -0.0894 0.9942
vn 0.0616 -0.0821 0.9947
vn 0.0657 -0.0657 0.9957
vn 0.0691 -0.0461 0.9965
vn 0.0714 -0.0238 0.9972
vn 0.0722 -0.0000 0.9974
vn 0.0714 0.0238 0.9972
vn 0.0691 0.0461 0.9965
vn 0.0657 0.0657 0.9957
vn 0.0648 -0.0864 0.9941
vn 0.0671 -0.0792 0.9946
vn 0.0713 -0.0632 0.9955
vn 0.0748 -0.0442 0.9962
vn 0.0770 -0.0228 0.9968
vn 0.0778 -0.0000 0.9970
vn 0.0770 0.0228 0.9968
vn 0.0748 0.0442 0.9962
vn 0.0713 0.0632 0.9955
vn -0.0671 -0.0792 0.9946
vn -0.0648 -0.0864 0.9941
vn -0.0713 -0.0632 0.9955
vn -0.0748 -0.0442 0.9962
vn -0.0770 -0.0228 0.9968
vn -0.0778 -0.0000 0.9970
vn -0.0770 0.0228 0.9968
vn -0.0748 0.0442 0.9962
vn -0.0713 0.0632 0.9955
vn 0.0639 0.0869 -0.9942
vn 0.2794 0.3772 -0.8830
vn 0.3455 0.1012 -0.9330
vn 0.5865 0.6993 -0.4087
vn 0.0695 0.4193 -0.9052
vn 0.0695 -0.4193 -0.9052
vn 0.2794 -0.3772 -0.8830
vn 0.5865 -0.6993 -0.4087
vn 0.0639 -0.0869 -0.9942
vn 0.3455 -0.1012 -0.9330
vn -0.0639 0.0869 -0.9942
vn -0.2794 0.3772 -0.8830
vn -0.0695 0.4193 -0.9052
vn -0.5865 0.6993 -0.4087
vn -0.3455 0.1012 -0.9330
vn -0.3455 -0.1012 -0.9330
vn -0.2794 -0.3772 -0.8830
vn -0.5865 -0.6993 -0.4087
vn -0.0639 -0.0869 -0.9942
vn -0.0695 -0.4193 -0.9052
vn -0.0695 -0.4193 0.9052
vn -0.2794 -0.3772 0.8830
vn -0.5865 -0.6993 0.4087
vn -0.3455 -0.1012 0.9330
vn -0.2794 0.3772 0.8830
vn -0.3455 0.1012 0.9330
vn -0.5865 0.6993 0.4087
vn -0.0695 0.4193 0.9052
vn 0.5865 0.6993 0.4087
vn 0.2794 0.3772 0.8830
vn 0.3455 0.1012 0.9330
vn 0.0695 0.4193 0.9052
vn 0.2794 -0.3772 0.8830
vn 0.3455 -0.1012 0.9330
vn 0.5865 -0.6993 0.4087
vn 0.0695 -0.4193 0.9052
vn 0.7071 -0.7071 -0.0000
vn -0.7071 -0.7071 -0.0000
vn -0.5553 -0.6221 -0.5519
vn 0.5553 -0.6221 -0.5519
vn 0.6024 -0.5717 -0.5570
vn -0.6024 -0.5717 -0.5570
vn 0.5553 0.6221 -0.5519
vn 0.6024 0.5717 -0.5570
vn -0.5553 0.6221 -0.5519
vn -0.6024 0.5717 -0.5570
vn -0.0000 -0.0000 -1.0000
vn -0.7071 0.7071 -0.0000
vn 0.7071 0.7071 -0.0000
vt 0.066304 0.469751
vt 0.066304 0.725320
vt 0.002412 0.725320
vt 0.002412 0.469751
vt 0.240440 0.310547
vt 0.240440 0.194291
vt 0.247200 0.201784
vt 0.246932 0.302580
vt 0.150642 0.194861
vt 0.234925 0.191266
vt 0.237424 0.194499
vt 0.148298 0.198282
vt 0.002412 0.460925
vt 0.002412 0.269249
vt 0.066304 0.269249
vt 0.066304 0.460925
vt 0.066304 0.004854
vt 0.066304 0.260423
vt 0.002412 0.260423
vt 0.002412 0.004854
vt 0.066304 0.734146
vt 0.066304 0.925822
vt 0.002412 0.925822
vt 0.002412 0.734146
vt 0.948832 0.973238
vt 0.058122 0.973238
vt 0.031845 0.953531
vt 0.975108 0.953531
vt 0.235359 0.076987
vt 0.150630 0.072737
vt 0.148293 0.069272
vt 0.237894 0.073764
vt 0.329915 0.193240
vt 0.323424 0.201207
vt 0.329915 0.309497
vt 0.323155 0.302003
vt 0.104731 0.895269
vt 0.101408 0.996987
vt 0.000000 1.000000
vt 0.003013 0.898592
vt 0.996987 0.898591
vt 1.000000 1.000000
vt 0.898592 0.996987
vt 0.895269 0.895269
vt 0.798039 0.994768
vt 0.794894 0.892687
vt 0.698264 0.993288
vt 0.695774 0.890819
vt 0.599041 0.992511
vt 0.597629 0.889682
vt 0.500000 0.992386
vt 0.500000 0.889288
vt 0.400959 0.992511
vt 0.402371 0.889682
vt 0.301736 0.993288
vt 0.304226 0.890819
vt 0.201961 0.994768
vt 0.205106 0.892687
vt 0.201961 0.005232
vt 0.205106 0.107313
vt 0.104731 0.104731
vt 0.101408 0.003014
vt 0.207603 0.207603
vt 0.107312 0.205106
vt 0.209479 0.306215
vt 0.109181 0.304226
vt 0.210683 0.403483
vt 0.110318 0.402371
vt 0.211131 0.500000
vt 0.110712 0.500000
vt 0.210683 0.596517
vt 0.110318 0.597629
vt 0.209479 0.693785
vt 0.109181 0.695774
vt 0.207603 0.792397
vt 0.107313 0.794894
vt 0.301735 0.006712
vt 0.304226 0.109181
vt 0.306215 0.209479
vt 0.307746 0.307747
vt 0.308767 0.404354
vt 0.309171 0.500000
vt 0.308767 0.595646
vt 0.307747 0.692253
vt 0.306215 0.790521
vt 0.400959 0.007489
vt 0.402371 0.110318
vt 0.403483 0.210683
vt 0.404354 0.308767
vt 0.404959 0.404959
vt 0.405227 0.500000
vt 0.404959 0.595041
vt 0.404354 0.691233
vt 0.403483 0.789317
vt 0.500000 0.007614
vt 0.500000 0.110712
vt 0.500000 0.211131
vt 0.500000 0.309171
vt 0.500000 0.405227
vt 0.500000 0.500000
vt 0.500000 0.594773
vt 0.500000 0.690829
vt 0.500000 0.788869
vt 0.599041 0.007489
vt 0.597629 0.110318
vt 0.596517 0.210683
vt 0.595646 0.308767
vt 0.595041 0.404959
vt 0.594773 0.500000
vt 0.595041 0.595041
vt 0.595646 0.691233
vt 0.596517 0.789317
vt 0.698264 0.006712
vt 0.695774 0.109181
vt 0.693785 0.209479
vt 0.692253 0.307746
vt 0.691233 0.404354
vt 0.690829 0.500000
vt 0.691233 0.595646
vt 0.692253 0.692253
vt 0.693785 0.790521
vt 0.798039 0.005232
vt 0.794894 0.107312
vt 0.792397 0.207603
vt 0.790521 0.306215
vt 0.789317 0.403483
vt 0.788869 0.500000
vt 0.789317 0.596517
vt 0.790521 0.693785
vt 0.792397 0.792397
vt 0.898591 0.003013
vt 0.895269 0.104731
vt 0.892687 0.205106
vt 0.890819 0.304226
vt 0.889682 0.402371
vt 0.889288 0.500000
vt 0.889682 0.597629
vt 0.890819 0.695774
vt 0.892687 0.794894
vt 1.000000 0.000000
vt 0.996986 0.101408
vt 0.994768 0.201961
vt 0.993288 0.301735
vt 0.992511 0.400959
vt 0.992386 0.500000
vt 0.992511 0.599041
vt 0.993288 0.698264
vt 0.994768 0.798039
vt 0.003013 0.101409
vt 0.000000 0.000000
vt 0.005232 0.201961
vt 0.006712 0.301736
vt 0.007489 0.400959
vt 0.007614 0.500000
vt 0.007489 0.599041
vt 0.006712 0.698265
vt 0.005232 0.798039
vt 0.332406 0.189943
vt 0.333725 0.191680
vt 0.332439 0.192120
vt 0.334951 0.190024
vt 0.334159 0.192204
vt 0.334059 0.189962
vt 0.332509 0.193171
vt 0.240440 0.190093
vt 0.241326 0.190030
vt 0.241664 0.191745
vt 0.241229 0.192269
vt 0.242984 0.190010
vt 0.242884 0.193240
vt 0.242952 0.192182
vt 0.332408 0.069256
vt 0.333727 0.067521
vt 0.334065 0.069235
vt 0.332507 0.066025
vt 0.334162 0.066996
vt 0.332439 0.067083
vt 0.334951 0.069172
vt 0.242883 0.066094
vt 0.242953 0.067145
vt 0.241666 0.067585
vt 0.241232 0.067061
vt 0.242986 0.069322
vt 0.240440 0.069241
vt 0.241332 0.069303
vt 0.031958 0.933647
vt 0.032084 0.940486
vt 0.017954 0.942271
vt 0.014497 0.938259
vt 0.148453 0.201496
vt 0.146744 0.200750
vt 0.147074 0.200165
vt 0.148427 0.200451
vt 0.238779 0.196213
vt 0.237507 0.196679
vt 0.239971 0.194551
vt 0.239220 0.196725
vt 0.239083 0.194497
vt 0.237609 0.197729
vt 0.238105 0.070535
vt 0.239710 0.071555
vt 0.239264 0.072062
vt 0.237995 0.071587
vt 0.240440 0.073731
vt 0.239557 0.073778
vt 0.147072 0.067355
vt 0.148441 0.067077
vt 0.974997 0.933681
vt 0.992467 0.938338
vt 0.988997 0.942346
vt 0.974872 0.940558
vt 0.148476 0.066025
vt 0.146744 0.066762
vt 0.002412 0.464897
vt 0.066304 0.464897
vt 0.002412 0.000000
vt 0.066304 0.000000
vt 0.066304 0.929794
vt 0.002412 0.929794
vt 0.066304 0.265277
vt 0.002412 0.265277
vt 0.066304 0.730174
vt 0.002412 0.730174
vt 0.068717 0.202889
vt 0.068717 0.000000
vt 0.074099 0.000000
vt 0.074099 0.202889
vt 0.122587 0.978407
vt 0.183950 0.978407
vt 0.183950 0.995161
vt 0.122587 0.995161
vt 0.229972 0.978407
vt 0.229972 0.995161
vt 0.076565 0.978407
vt 0.076565 0.995161
vt 0.291335 0.978407
vt 0.291335 0.995161
vt 0.148191 0.203425
vt 0.148191 0.291990
vt 0.146744 0.293919
vt 0.146745 0.201496
vt 0.214615 0.291990
vt 0.216062 0.293919
vt 0.214615 0.203425
vt 0.216061 0.201496
vt 0.214615 0.291989
vt 0.216062 0.293918
vt 0.773514 0.485698
vt 0.567720 0.485698
vt 0.068717 0.710111
vt 0.068717 0.557944
vt 0.074099 0.557944
vt 0.074099 0.710111
vt 0.068717 0.355055
vt 0.074099 0.355055
vt 0.773514 0.356116
vt 0.567720 0.356116
vt 0.136746 0.324023
vt 0.924244 0.324023
vt 0.136746 0.914647
vt 0.924244 0.914647
s 1
usemtl Material
f 153/1/1 137/2/2 180/3/3 158/4/4
f 4/5/5 2/6/5 8/7/5 5/8/5
f 4/9/6 3/10/6 165/11/7 159/12/8
f 160/13/9 167/14/10 145/15/11 151/16/12
f 131/17/13 146/18/14 166/19/15 173/20/16
f 139/21/17 132/22/18 172/23/19 181/24/20
f 2/25/6 4/26/6 159/27/8 179/28/21
f 1/29/6 2/30/6 179/31/21 174/32/22
f 3/10/6 1/29/6 174/32/22 165/11/7
f 2/6/23 1/33/23 7/34/23 8/7/23
f 1/33/24 3/35/24 6/36/24 7/34/24
f 3/35/25 4/5/25 5/8/25 6/36/25
f 188/158/146 134/159/147 136/160/148
f 131/161/13 135/162/149 134/159/147 133/163/150
f 132/164/18 136/160/148 134/159/147 135/162/149
f 137/165/2 140/166/151 141/167/152 143/168/153
f 187/169/154 141/167/152 140/166/151
f 139/170/17 143/168/153 141/167/152 142/171/155
f 189/172/156 148/173/157 150/174/158
f 145/175/11 149/176/159 148/173/157 147/177/160
f 146/178/14 150/174/158 148/173/157 149/176/159
f 151/179/12 154/180/161 155/181/162 157/182/163
f 186/183/164 155/181/162 154/180/161
f 153/184/1 157/182/163 155/181/162 156/185/165
f 158/186/4 161/187/166 162/188/167 164/189/168
f 159/27/8 162/188/167 161/187/166
f 160/190/9 164/191/168 162/192/167 163/193/169
f 165/11/7 169/194/170 171/195/171
f 166/196/15 170/197/172 169/194/170 168/198/173
f 167/199/10 171/195/171 169/194/170 170/197/172
f 172/200/19 175/201/174 176/202/175 178/203/176
f 173/204/16 177/205/177 176/202/175 175/201/174
f 174/32/22 176/202/175 177/205/177
f 179/31/21 183/206/178 185/207/179
f 180/208/3 184/209/180 183/210/178 182/211/181
f 181/212/20 185/207/179 183/206/178 184/213/180
f 153/1/1 158/4/4 164/214/168 157/215/163
f 157/215/163 164/214/168 160/13/9 151/16/12
f 137/165/2 153/184/1 156/185/165 140/166/151
f 140/166/151 156/185/165 186/183/164 187/169/154
f 132/164/18 139/170/17 142/171/155 136/160/148
f 136/160/148 142/171/155 187/169/154 188/158/146
f 159/12/8 165/11/7 171/195/171 163/193/169
f 163/193/169 171/195/171 167/199/10 160/190/9
f 174/32/22 179/31/21 185/207/179 178/203/176
f 178/203/176 185/207/179 181/212/20 172/200/19
f 189/172/156 186/183/164 154/180/161 147/177/160
f 147/177/160 154/180/161 151/179/12 145/175/11
f 173/204/16 166/196/15 168/198/173 177/205/177
f 177/205/177 168/198/173 165/11/7 174/32/22
f 131/17/13 173/20/16 175/216/174 135/217/149
f 135/218/149 175/219/174 172/23/19 132/22/18
f 158/186/4 180/208/3 182/211/181 161/187/166
f 161/187/166 182/211/181 179/28/21 159/27/8
f 166/19/15 146/18/14 149/220/159 170/221/172
f 170/221/172 149/220/159 145/15/11 167/14/10
f 146/178/14 131/161/13 133/163/150 150/174/158
f 150/174/158 133/163/150 188/158/146 189/172/156
f 180/3/3 137/2/2 143/222/153 184/223/180
f 184/223/180 143/222/153 139/21/17 181/24/20
f 144/224/182 130/225/183 200/226/183 201/227/182
f 190/228/184 191/229/185 187/230/186 186/231/187
f 191/229/185 192/232/188 188/233/189 187/230/186
f 193/234/190 190/228/184 186/231/187 189/235/191
f 192/232/188 193/236/190 189/237/191 188/233/189
f 152/238/192 138/239/192 191/240/192 190/241/192
f 138/239/192 130/242/192 192/243/192 191/240/192
f 144/244/192 152/238/192 190/241/192 193/245/192
f 130/246/192 144/244/192 193/245/192 192/247/192
f 197/248/182 196/249/183 204/249/183 205/248/182
f 130/250/183 138/251/193 199/252/193 200/253/183
f 152/254/194 144/224/182 201/227/182 198/255/194
f 138/251/193 152/254/194 198/255/194 199/252/193
f 194/256/192 195/257/192 199/258/192 198/259/192
f 195/257/192 196/249/192 200/260/192 199/258/192
f 197/248/192 194/256/192 198/259/192 201/261/192
f 196/249/192 197/248/192 201/261/192 200/260/192
f 202/256/192 205/248/192 204/249/192 203/257/192
f 196/249/183 195/257/193 203/257/193 204/249/183
f 194/256/194 197/248/182 205/248/182 202/256/194
f 195/257/193 194/256/194 202/256/194 203/257/193
f 165/11/7 168/198/173 169/194/170
f 159/12/8 163/193/169 162/192/167
f 179/28/21 182/211/181 183/210/178
f 174/32/22 178/203/176 176/202/175
f 188/158/146 133/163/150 134/159/147
f 187/169/154 142/171/155 141/167/152
f 189/172/156 147/177/160 148/173/157
f 186/183/164 156/185/165 155/181/162
usemtl Screen
f 121/37/26 21/38/27 10/39/28 39/40/29
f 40/41/30 11/42/31 13/43/32 49/44/33
f 49/44/33 13/43/32 14/45/34 58/46/35
f 58/46/35 14/45/34 15/47/36 67/48/37
f 67/48/37 15/47/36 16/49/38 76/50/39
f 76/50/39 16/49/38 17/51/40 85/52/41
f 85/52/41 17/51/40 18/53/42 94/54/43
f 94/54/43 18/53/42 19/55/44 103/56/45
f 103/56/45 19/55/44 20/57/46 112/58/47
f 112/58/47 20/57/46 21/38/27 121/37/26
f 23/59/48 120/60/49 129/61/50 22/62/51
f 120/60/49 119/63/52 128/64/53 129/61/50
f 119/63/52 118/65/54 127/66/55 128/64/53
f 118/65/54 117/67/56 126/68/57 127/66/55
f 117/67/56 116/69/58 125/70/59 126/68/57
f 116/69/58 115/71/60 124/72/61 125/70/59
f 115/71/60 114/73/62 123/74/63 124/72/61
f 114/73/62 113/75/64 122/76/65 123/74/63
f 113/75/64 112/58/47 121/37/26 122/76/65
f 24/77/66 111/78/67 120/60/49 23/59/48
f 111/78/67 110/79/68 119/63/52 120/60/49
f 110/79/68 109/80/69 118/65/54 119/63/52
f 109/80/69 108/81/70 117/67/56 118/65/54
f 108/81/70 107/82/71 116/69/58 117/67/56
f 107/82/71 106/83/72 115/71/60 116/69/58
f 106/83/72 105/84/73 114/73/62 115/71/60
f 105/84/73 104/85/74 113/75/64 114/73/62
f 104/85/74 103/56/45 112/58/47 113/75/64
f 25/86/75 102/87/76 111/78/67 24/77/66
f 102/87/76 101/88/77 110/79/68 111/78/67
f 101/88/77 100/89/78 109/80/69 110/79/68
f 100/89/78 99/90/79 108/81/70 109/80/69
f 99/90/79 98/91/80 107/82/71 108/81/70
f 98/91/80 97/92/81 106/83/72 107/82/71
f 97/92/81 96/93/82 105/84/73 106/83/72
f 96/93/82 95/94/83 104/85/74 105/84/73
f 95/94/83 94/54/43 103/56/45 104/85/74
f 26/95/84 93/96/85 102/87/76 25/86/75
f 93/96/85 92/97/86 101/88/77 102/87/76
f 92/97/86 91/98/87 100/89/78 101/88/77
f 91/98/87 90/99/88 99/90/79 100/89/78
f 90/99/88 89/100/6 98/91/80 99/90/79
f 89/100/6 88/101/89 97/92/81 98/91/80
f 88/101/89 87/102/90 96/93/82 97/92/81
f 87/102/90 86/103/91 95/94/83 96/93/82
f 86/103/91 85/52/41 94/54/43 95/94/83
f 27/104/92 84/105/93 93/96/85 26/95/84
f 84/105/93 83/106/94 92/97/86 93/96/85
f 83/106/94 82/107/95 91/98/87 92/97/86
f 82/107/95 81/108/96 90/99/88 91/98/87
f 81/108/96 80/109/97 89/100/6 90/99/88
f 80/109/97 79/110/98 88/101/89 89/100/6
f 79/110/98 78/111/99 87/102/90 88/101/89
f 78/111/99 77/112/100 86/103/91 87/102/90
f 77/112/100 76/50/39 85/52/41 86/103/91
f 28/113/101 75/114/102 84/105/93 27/104/92
f 75/114/102 74/115/103 83/106/94 84/105/93
f 74/115/103 73/116/104 82/107/95 83/106/94
f 73/116/104 72/117/105 81/108/96 82/107/95
f 72/117/105 71/118/106 80/109/97 81/108/96
f 71/118/106 70/119/107 79/110/98 80/109/97
f 70/119/107 69/120/108 78/111/99 79/110/98
f 69/120/108 68/121/109 77/112/100 78/111/99
f 68/121/109 67/48/37 76/50/39 77/112/100
f 29/122/110 66/123/111 75/114/102 28/113/101
f 66/123/111 65/124/112 74/115/103 75/114/102
f 65/124/112 64/125/113 73/116/104 74/115/103
f 64/125/113 63/126/114 72/117/105 73/116/104
f 63/126/114 62/127/115 71/118/106 72/117/105
f 62/127/115 61/128/116 70/119/107 71/118/106
f 61/128/116 60/129/117 69/120/108 70/119/107
f 60/129/117 59/130/118 68/121/109 69/120/108
f 59/130/118 58/46/35 67/48/37 68/121/109
f 30/131/119 57/132/120 66/123/111 29/122/110
f 57/132/120 56/133/121 65/124/112 66/123/111
f 56/133/121 55/134/122 64/125/113 65/124/112
f 55/134/122 54/135/123 63/126/114 64/125/113
f 54/135/123 53/136/124 62/127/115 63/126/114
f 53/136/124 52/137/125 61/128/116 62/127/115
f 52/137/125 51/138/126 60/129/117 61/128/116
f 51/138/126 50/139/127 59/130/118 60/129/117
f 50/139/127 49/44/33 58/46/35 59/130/118
f 12/140/128 48/141/129 57/132/120 30/131/119
f 48/141/129 47/142/130 56/133/121 57/132/120
f 47/142/130 46/143/131 55/134/122 56/133/121
f 46/143/131 45/144/132 54/135/123 55/134/122
f 45/144/132 44/145/133 53/136/124 54/135/123
f 44/145/133 43/146/134 52/137/125 53/136/124
f 43/146/134 42/147/135 51/138/126 52/137/125
f 42/147/135 41/148/136 50/139/127 51/138/126
f 41/148/136 40/41/30 49/44/33 50/139/127
f 22/62/51 129/61/50 31/149/137 9/150/138
f 129/61/50 128/64/53 32/151/139 31/149/137
f 128/64/53 127/66/55 33/152/140 32/151/139
f 127/66/55 126/68/57 34/153/141 33/152/140
f 126/68/57 125/70/59 35/154/142 34/153/141
f 125/70/59 124/72/61 36/155/143 35/154/142
f 124/72/61 123/74/63 37/156/144 36/155/143
f 123/74/63 122/76/65 38/157/145 37/156/144
f 122/76/65 121/37/26 39/40/29 38/157/145
