# Blender 4.1.0
# www.blender.org
mtllib WebcamMonitor.mtl
o Cube
v 0.898204 0.898204 1.000000
v 0.898204 -0.898204 1.000000
v -0.898204 0.898204 1.000000
v -0.898204 -0.898204 1.000000
v -0.809402 -0.809402 0.691177
v -0.809402 0.809402 0.691177
v 0.809402 0.809402 0.691177
v 0.809402 -0.809402 0.691177
v -0.898204 -0.898204 0.797126
v -0.898204 0.898204 0.797126
v 0.898204 0.898204 0.797126
v 0.898204 -0.898204 0.797126
v 0.718563 0.898204 0.842260
v 0.538923 0.898204 0.879706
v 0.359282 0.898204 0.907859
v 0.179641 0.898204 0.925375
v -0.000000 0.898204 0.931325
v -0.179641 0.898204 0.925375
v -0.359282 0.898204 0.907859
v -0.538923 0.898204 0.879706
v -0.718564 0.898204 0.842260
v -0.718563 -0.898204 0.842260
v -0.538923 -0.898204 0.879706
v -0.359282 -0.898204 0.907859
v -0.179641 -0.898204 0.925375
v 0.000000 -0.898204 0.931325
v 0.179641 -0.898204 0.925375
v 0.359282 -0.898204 0.907859
v 0.538923 -0.898204 0.879706
v 0.718564 -0.898204 0.842260
v -0.898204 -0.718563 0.842260
v -0.898204 -0.538923 0.879706
v -0.898204 -0.359282 0.907859
v -0.898204 -0.179641 0.925375
v -0.898204 0.000000 0.931325
v -0.898204 0.179641 0.925375
v -0.898204 0.359282 0.907859
v -0.898204 0.538923 0.879706
v -0.898204 0.718564 0.842260
v 0.898204 0.718563 0.842260
v 0.898204 0.538923 0.879706
v 0.898204 0.359282 0.907859
v 0.898204 0.179641 0.925375
v 0.898204 -0.000000 0.931325
v 0.898204 -0.179641 0.925375
v 0.898204 -0.359282 0.907859
v 0.898204 -0.538923 0.879706
v 0.898204 -0.718564 0.842260
v 0.718563 0.718563 0.890818
v 0.718563 0.538923 0.931325
v 0.718563 0.359282 0.961986
v 0.718563 0.179641 0.981183
v 0.718563 -0.000000 0.987731
v 0.718563 -0.179641 0.981183
v 0.718563 -0.359282 0.961986
v 0.718563 -0.538923 0.931325
v 0.718564 -0.718564 0.890818
v 0.538923 0.718563 0.931325
v 0.538923 0.538923 0.974712
v 0.538923 0.359282 1.007863
v 0.538923 0.179641 1.028814
v 0.538923 -0.000000 1.036003
v 0.538923 -0.179641 1.028814
v 0.538923 -0.359282 1.007863
v 0.538923 -0.538923 0.974712
v 0.538923 -0.718564 0.931325
v 0.359282 0.718563 0.961986
v 0.359282 0.538923 1.007863
v 0.359282 0.359282 1.043307
v 0.359282 0.179641 1.065994
v 0.359282 -0.000000 1.073856
v 0.359282 -0.179641 1.065994
v 0.359282 -0.359282 1.043307
v 0.359282 -0.538923 1.007863
v 0.359282 -0.718564 0.961986
v 0.179641 0.718563 0.981183
v 0.179641 0.538923 1.028814
v 0.179641 0.359282 1.065994
v 0.179641 0.179641 1.090150
v 0.179641 -0.000000 1.098661
v 0.179641 -0.179641 1.090150
v 0.179641 -0.359282 1.065994
v 0.179641 -0.538923 1.028814
v 0.179641 -0.718564 0.981183
v -0.000000 0.718563 0.987731
v -0.000000 0.538923 1.036003
v -0.000000 0.359282 1.073856
v -0.000000 0.179641 1.098661
v 0.000000 -0.000000 1.107563
v 0.000000 -0.179641 1.098661
v 0.000000 -0.359282 1.073856
v 0.000000 -0.538923 1.036003
v 0.000000 -0.718564 0.987731
v -0.179641 0.718563 0.981183
v -0.179641 0.538923 1.028814
v -0.179641 0.359282 1.065994
v -0.179641 0.179641 1.090150
v -0.179641 -0.000000 1.098661
v -0.179641 -0.179641 1.090150
v -0.179641 -0.359282 1.065994
v -0.179641 -0.538923 1.028814
v -0.179641 -0.718564 0.981183
v -0.359282 0.718563 0.961986
v -0.359282 0.538923 1.007863
v -0.359282 0.359282 1.043307
v -0.359282 0.179641 1.065994
v -0.359282 -0.000000 1.073856
v -0.359282 -0.179641 1.065994
v -0.359282 -0.359282 1.043307
v -0.359282 -0.538923 1.007863
v -0.359282 -0.718564 0.961986
v -0.538923 0.718563 0.931325
v -0.538923 0.538923 0.974712
v -0.538923 0.359282 1.007863
v -0.538923 0.179641 1.028814
v -0.538923 -0.000000 1.036003
v -0.538923 -0.179641 1.028814
v -0.538923 -0.359282 1.007863
v -0.538923 -0.538923 0.974712
v -0.538923 -0.718564 0.931325
v -0.718564 0.718563 0.890818
v -0.718564 0.538923 0.931325
v -0.718564 0.359282 0.961986
v -0.718564 0.179641 0.981183
v -0.718564 -0.000000 0.987731
v -0.718564 -0.179641 0.981183
v -0.718564 -0.359282 0.961986
v -0.718564 -0.538923 0.931325
v -0.718564 -0.718564 0.890818
v 0.951200 0.951200 -1.000000
v 0.951200 1.000000 -0.951200
v 1.000000 0.951200 -0.951200
v 0.951200 0.985707 -0.985707
v 0.979375 0.979375 -0.979375
v 0.985707 0.985707 -0.951200
v 0.985707 0.951200 -0.985707
v 0.951200 -1.000000 -0.951200
v 0.951200 -0.951200 -1.000000
v 1.000000 -0.951200 -0.951200
v 0.951200 -0.985707 -0.985707
v 0.979375 -0.979375 -0.979375
v 0.985707 -0.951200 -0.985707
v 0.985707 -0.985707 -0.951200
v -0.951200 0.951200 -1.000000
v -1.000000 0.951200 -0.951200
v -0.951200 1.000000 -0.951200
v -0.985707 0.951200 -0.985707
v -0.979375 0.979375 -0.979375
v -0.985707 0.985707 -0.951200
v -0.951200 0.985707 -0.985707
v -1.000000 -0.951200 -0.951200
v -0.951200 -0.951200 -1.000000
v -0.951200 -1.000000 -0.951200
v -0.985707 -0.951200 -0.985707
v -0.979375 -0.979375 -0.979375
v -0.951200 -0.985707 -0.985707
v -0.985707 -0.985707 -0.951200
v -0.951200 -1.000000 0.951200
v -0.951200 -0.951200 1.000000
v -1.000000 -0.951200 0.951200
v -0.951200 -0.985707 0.985707
v -0.979375 -0.979375 0.979375
v -0.985707 -0.951200 0.985707
v -0.985707 -0.985707 0.951200
v -0.951200 0.951200 1.000000
v -0.951200 1.000000 0.951200
v -1.000000 0.951200 0.951200
v -0.951200 0.985707 0.985707
v -0.979375 0.979375 0.979375
v -0.985707 0.985707 0.951200
v -0.985707 0.951200 0.985707
v 1.000000 0.951200 0.951200
v 0.951200 1.000000 0.951200
v 0.951200 0.951200 1.000000
v 0.985707 0.985707 0.951200
v 0.979375 0.979375 0.979375
v 0.951200 0.985707 0.985707
v 0.985707 0.951200 0.985707
v 0.951200 -0.951200 1.000000
v 0.951200 -1.000000 0.951200
v 1.000000 -0.951200 0.951200
v 0.951200 -0.985707 0.985707
v 0.979375 -0.979375 0.979375
v 0.985707 -0.985707 0.951200
v 0.985707 -0.951200 0.985707
vn -0.1794 -0.9673 -0.1794
vn 0.1794 -0.9673 -0.1794
vn 0.1794 -0.9673 0.1794
vn -0.1794 -0.9673 0.1794
vn -0.0000 0.9611 0.2764
vn -0.0000 -0.0000 1.0000
vn -0.1794 0.1794 0.9673
vn -0.1794 -0.1794 0.9673
vn -0.9673 -0.1794 0.1794
vn -0.9673 0.1794 0.1794
vn -0.9673 0.1794 -0.1794
vn -0.9673 -0.1794 -0.1794
vn 0.1794 0.9673 -0.1794
vn -0.1794 0.9673 -0.1794
vn -0.1794 0.9673 0.1794
vn 0.1794 0.9673 0.1794
vn 0.9673 -0.1794 -0.1794
vn 0.9673 0.1794 -0.1794
vn 0.9673 0.1794 0.1794
vn 0.9673 -0.1794 0.1794
vn 0.1794 -0.1794 0.9673
vn 0.1794 0.1794 0.9673
vn -0.9611 -0.0000 0.2764
vn -0.0000 -0.9611 0.2764
vn 0.9611 -0.0000 0.2764
vn -0.2336 0.2336 0.9439
vn -0.2254 0.2535 0.9407
vn -0.2447 0.2447 0.9382
vn -0.2535 0.2254 0.9407
vn 0.2535 0.2254 0.9407
vn 0.2447 0.2447 0.9382
vn 0.2254 0.2535 0.9407
vn 0.2336 0.2336 0.9439
vn 0.1807 0.2708 0.9455
vn 0.1879 0.2504 0.9497
vn 0.1269 0.2851 0.9501
vn 0.1325 0.2646 0.9552
vn 0.0656 0.2947 0.9533
vn 0.0688 0.2744 0.9591
vn -0.0000 0.2981 0.9545
vn -0.0000 0.2779 0.9606
vn -0.0656 0.2947 0.9533
vn -0.0688 0.2744 0.9591
vn -0.1269 0.2851 0.9501
vn -0.1325 0.2646 0.9552
vn -0.1807 0.2708 0.9455
vn -0.1879 0.2504 0.9497
vn -0.1807 -0.2708 0.9455
vn -0.1879 -0.2504 0.9497
vn -0.2336 -0.2336 0.9439
vn -0.2254 -0.2535 0.9407
vn -0.2035 -0.2035 0.9577
vn -0.2504 -0.1879 0.9497
vn -0.2174 -0.1451 0.9652
vn -0.2646 -0.1325 0.9552
vn -0.2274 -0.0760 0.9708
vn -0.2744 -0.0688 0.9591
vn -0.2311 -0.0000 0.9729
vn -0.2779 -0.0000 0.9606
vn -0.2274 0.0760 0.9708
vn -0.2744 0.0688 0.9591
vn -0.2174 0.1451 0.9652
vn -0.2646 0.1325 0.9552
vn -0.2035 0.2035 0.9577
vn -0.2504 0.1879 0.9497
vn -0.1269 -0.2851 0.9501
vn -0.1325 -0.2646 0.9552
vn -0.1451 -0.2174 0.9652
vn -0.1570 -0.1570 0.9750
vn -0.1661 -0.0832 0.9826
vn -0.1697 -0.0000 0.9855
vn -0.1661 0.0832 0.9826
vn -0.1570 0.1570 0.9750
vn -0.1451 0.2174 0.9652
vn -0.0656 -0.2947 0.9533
vn -0.0688 -0.2744 0.9591
vn -0.0760 -0.2274 0.9708
vn -0.0832 -0.1661 0.9826
vn -0.0892 -0.0892 0.9920
vn -0.0917 -0.0000 0.9958
vn -0.0892 0.0892 0.9920
vn -0.0832 0.1661 0.9826
vn -0.0760 0.2274 0.9708
vn -0.0000 -0.2981 0.9545
vn -0.0000 -0.2779 0.9606
vn -0.0000 -0.2311 0.9729
vn -0.0000 -0.1697 0.9855
vn -0.0000 -0.0917 0.9958
vn -0.0000 0.0917 0.9958
vn -0.0000 0.1697 0.9855
vn -0.0000 0.2311 0.9729
vn 0.0656 -0.2947 0.9533
vn 0.0688 -0.2744 0.9591
vn 0.0760 -0.2274 0.9708
vn 0.0832 -0.1661 0.9826
vn 0.0892 -0.0892 0.9920
vn 0.0917 -0.0000 0.9958
vn 0.0892 0.0892 0.9920
vn 0.0832 0.1661 0.9826
vn 0.0760 0.2274 0.9708
vn 0.1269 -0.2851 0.9501
vn 0.1325 -0.2646 0.9552
vn 0.1451 -0.2174 0.9652
vn 0.1570 -0.1570 0.9750
vn 0.1661 -0.0832 0.9826
vn 0.1697 -0.0000 0.9855
vn 0.1661 0.0832 0.9826
vn 0.1570 0.1570 0.9750
vn 0.1451 0.2174 0.9652
vn 0.1807 -0.2708 0.9455
vn 0.1879 -0.2504 0.9497
vn 0.2035 -0.2035 0.9577
vn 0.2174 -0.1451 0.9652
vn 0.2274 -0.0760 0.9708
vn 0.2311 -0.0000 0.9729
vn 0.2274 0.0760 0.9708
vn 0.2174 0.1451 0.9652
vn 0.2035 0.2035 0.9577
vn 0.2254 -0.2535 0.9407
vn 0.2336 -0.2336 0.9439
vn 0.2504 -0.1879 0.9497
vn 0.2646 -0.1325 0.9552
vn 0.2744 -0.0688 0.9591
vn 0.2779 -0.0000 0.9606
vn 0.2744 0.0688 0.9591
vn 0.2646 0.1325 0.9552
vn 0.2504 0.1879 0.9497
vn 0.2447 -0.2447 0.9382
vn 0.2535 -0.2254 0.9407
vn 0.2708 -0.1807 0.9455
vn 0.2851 -0.1269 0.9501
vn 0.2947 -0.0656 0.9533
vn 0.2981 -0.0000 0.9545
vn 0.2947 0.0656 0.9533
vn 0.2851 0.1269 0.9501
vn 0.2708 0.1807 0.9455
vn -0.2535 -0.2254 0.9407
vn -0.2447 -0.2447 0.9382
vn -0.2708 -0.1807 0.9455
vn -0.2851 -0.1269 0.9501
vn -0.2947 -0.0656 0.9533
vn -0.2981 -0.0000 0.9545
vn -0.2947 0.0656 0.9533
vn -0.2851 0.1269 0.9501
vn -0.2708 0.1807 0.9455
vn 0.1794 0.1794 -0.9673
vn 0.1726 0.6965 -0.6965
vn 0.5774 0.5774 -0.5774
vn 0.6965 0.1726 -0.6965
vn 0.6965 0.6965 -0.1726
vn 0.1726 -0.6965 -0.6965
vn 0.5774 -0.5774 -0.5774
vn 0.6965 -0.6965 -0.1726
vn 0.1794 -0.1794 -0.9673
vn 0.6965 -0.1726 -0.6965
vn -0.1794 0.1794 -0.9673
vn -0.6965 0.1726 -0.6965
vn -0.5774 0.5774 -0.5774
vn -0.1726 0.6965 -0.6965
vn -0.6965 0.6965 -0.1726
vn -0.6965 -0.1726 -0.6965
vn -0.5774 -0.5774 -0.5774
vn -0.6965 -0.6965 -0.1726
vn -0.1794 -0.1794 -0.9673
vn -0.1726 -0.6965 -0.6965
vn -0.1726 -0.6965 0.6965
vn -0.5774 -0.5774 0.5774
vn -0.6965 -0.6965 0.1726
vn -0.6965 -0.1726 0.6965
vn -0.1726 0.6965 0.6965
vn -0.5774 0.5774 0.5773
vn -0.6965 0.1726 0.6965
vn -0.6965 0.6965 0.1726
vn 0.6965 0.6965 0.1726
vn 0.5774 0.5774 0.5774
vn 0.6965 0.1726 0.6965
vn 0.1726 0.6965 0.6965
vn 0.1726 -0.6965 0.6965
vn 0.5774 -0.5774 0.5773
vn 0.6965 -0.1726 0.6965
vn 0.6965 -0.6965 0.1726
vt 0.131100 0.506100
vt 0.368900 0.506100
vt 0.368900 0.743900
vt 0.131100 0.743900
vt 0.387724 0.987275
vt 0.387724 0.762724
vt 0.612276 0.987276
vt 0.618900 0.993900
vt 0.381100 0.993900
vt 0.381100 0.006100
vt 0.618900 0.006100
vt 0.618900 0.243900
vt 0.381100 0.243900
vt 0.631100 0.506100
vt 0.868900 0.506100
vt 0.868900 0.743900
vt 0.631100 0.743900
vt 0.381100 0.506100
vt 0.618900 0.506100
vt 0.618900 0.743900
vt 0.381100 0.743900
vt 0.381100 0.756100
vt 0.612276 0.762724
vt 0.381100 0.756100
vt 0.618900 0.756100
vt 0.618900 0.756100
vt 0.618900 0.993900
vt 0.104731 0.895269
vt 0.101408 0.996987
vt 0.000000 1.000000
vt 0.003013 0.898592
vt 0.996987 0.898591
vt 1.000000 1.000000
vt 0.898592 0.996987
vt 0.895269 0.895269
vt 0.798039 0.994768
vt 0.794894 0.892687
vt 0.698264 0.993288
vt 0.695774 0.890819
vt 0.599041 0.992511
vt 0.597629 0.889682
vt 0.500000 0.992386
vt 0.500000 0.889288
vt 0.400959 0.992511
vt 0.402371 0.889682
vt 0.301736 0.993288
vt 0.304226 0.890819
vt 0.201961 0.994768
vt 0.205106 0.892687
vt 0.201961 0.005232
vt 0.205106 0.107313
vt 0.104731 0.104731
vt 0.101408 0.003014
vt 0.207603 0.207603
vt 0.107312 0.205106
vt 0.209479 0.306215
vt 0.109181 0.304226
vt 0.210683 0.403483
vt 0.110318 0.402371
vt 0.211131 0.500000
vt 0.110712 0.500000
vt 0.210683 0.596517
vt 0.110318 0.597629
vt 0.209479 0.693785
vt 0.109181 0.695774
vt 0.207603 0.792397
vt 0.107313 0.794894
vt 0.301735 0.006712
vt 0.304226 0.109181
vt 0.306215 0.209479
vt 0.307746 0.307747
vt 0.308767 0.404354
vt 0.309171 0.500000
vt 0.308767 0.595646
vt 0.307747 0.692253
vt 0.306215 0.790521
vt 0.400959 0.007489
vt 0.402371 0.110318
vt 0.403483 0.210683
vt 0.404354 0.308767
vt 0.404959 0.404959
vt 0.405227 0.500000
vt 0.404959 0.595041
vt 0.404354 0.691233
vt 0.403483 0.789317
vt 0.500000 0.007614
vt 0.500000 0.110712
vt 0.500000 0.211131
vt 0.500000 0.309171
vt 0.500000 0.405227
vt 0.500000 0.500000
vt 0.500000 0.594773
vt 0.500000 0.690829
vt 0.500000 0.788869
vt 0.599041 0.007489
vt 0.597629 0.110318
vt 0.596517 0.210683
vt 0.595646 0.308767
vt 0.595041 0.404959
vt 0.594773 0.500000
vt 0.595041 0.595041
vt 0.595646 0.691233
vt 0.596517 0.789317
vt 0.698264 0.006712
vt 0.695774 0.109181
vt 0.693785 0.209479
vt 0.692253 0.307746
vt 0.691233 0.404354
vt 0.690829 0.500000
vt 0.691233 0.595646
vt 0.692253 0.692253
vt 0.693785 0.790521
vt 0.798039 0.005232
vt 0.794894 0.107312
vt 0.792397 0.207603
vt 0.790521 0.306215
vt 0.789317 0.403483
vt 0.788869 0.500000
vt 0.789317 0.596517
vt 0.790521 0.693785
vt 0.792397 0.792397
vt 0.898591 0.003013
vt 0.895269 0.104731
vt 0.892687 0.205106
vt 0.890819 0.304226
vt 0.889682 0.402371
vt 0.889288 0.500000
vt 0.889682 0.597629
vt 0.890819 0.695774
vt 0.892687 0.794894
vt 1.000000 0.000000
vt 0.996986 0.101408
vt 0.994768 0.201961
vt 0.993288 0.301735
vt 0.992511 0.400959
vt 0.992386 0.500000
vt 0.992511 0.599041
vt 0.993288 0.698264
vt 0.994768 0.798039
vt 0.003013 0.101409
vt 0.000000 0.000000
vt 0.005232 0.201961
vt 0.006712 0.301736
vt 0.007489 0.400959
vt 0.007614 0.500000
vt 0.007489 0.599041
vt 0.006712 0.698265
vt 0.005232 0.798039
vt 0.618900 0.493900
vt 0.625000 0.493900
vt 0.624141 0.500000
vt 0.618900 0.500000
vt 0.625000 0.506100
vt 0.631100 0.500000
vt 0.368900 0.500000
vt 0.375000 0.500859
vt 0.375000 0.506100
vt 0.381100 0.493900
vt 0.381100 0.500000
vt 0.375000 0.493900
vt 0.618900 0.256100
vt 0.618900 0.250000
vt 0.622422 0.250000
vt 0.625000 0.256100
vt 0.625000 0.243900
vt 0.625000 0.247422
vt 0.868900 0.500000
vt 0.872422 0.500000
vt 0.875000 0.506100
vt 0.381100 0.250000
vt 0.377578 0.250000
vt 0.375000 0.243900
vt 0.381100 0.256100
vt 0.375000 0.256100
vt 0.375000 0.252578
vt 0.125000 0.506100
vt 0.125000 0.502578
vt 0.131100 0.500000
vt 0.131100 0.750000
vt 0.127578 0.750000
vt 0.125000 0.743900
vt 0.381100 1.000000
vt 0.377578 1.000000
vt 0.375000 0.993900
vt 0.375000 0.006100
vt 0.375000 0.002578
vt 0.381100 0.000000
vt 0.625000 0.993900
vt 0.625000 0.997422
vt 0.618900 1.000000
vt 0.875000 0.743900
vt 0.875000 0.747422
vt 0.868900 0.750000
vt 0.618900 0.000000
vt 0.622422 0.000000
vt 0.625000 0.006100
vt 0.625000 0.743900
vt 0.625000 0.749141
vt 0.618900 0.750000
vt 0.631100 0.750000
vt 0.625000 0.756100
vt 0.375000 0.756100
vt 0.375859 0.750000
vt 0.381100 0.750000
vt 0.375000 0.743900
vt 0.368900 0.750000
vt 0.381100 0.750000
vt 0.618900 1.000000
vt 0.625000 0.756100
vt 0.375000 0.993900
s 1
usemtl Material
f 153/1/1 137/2/2 180/3/3 158/4/4
f 4/5/5 2/6/5 8/6/5 5/5/5
f 4/5/6 3/7/6 165/8/7 159/9/8
f 160/10/9 167/11/10 145/12/11 151/13/12
f 131/14/13 146/15/14 166/16/15 173/17/16
f 139/18/17 132/19/18 172/20/19 181/21/20
f 2/6/6 4/5/6 159/9/8 179/22/21
f 1/23/6 2/6/6 179/24/21 174/25/22
f 3/7/6 1/23/6 174/26/22 165/27/7
f 2/6/23 1/23/23 7/23/23 8/6/23
f 1/23/24 3/7/24 6/7/24 7/23/24
f 3/7/25 4/5/25 5/5/25 6/7/25
f 130/149/146 133/150/147 134/151/148 136/152/149
f 131/14/13 135/153/150 134/151/148 133/154/147
f 132/19/18 136/152/149 134/151/148 135/153/150
f 137/2/2 140/155/151 141/156/152 143/157/153
f 138/158/154 142/159/155 141/156/152 140/160/151
f 139/18/17 143/157/153 141/156/152 142/159/155
f 144/161/156 147/162/157 148/163/158 150/164/159
f 145/12/11 149/165/160 148/166/158 147/162/157
f 146/15/14 150/167/159 148/168/158 149/169/160
f 151/13/12 154/170/161 155/171/162 157/172/163
f 152/173/164 156/174/165 155/175/162 154/170/161
f 153/1/1 157/176/163 155/177/162 156/178/165
f 158/4/4 161/179/166 162/180/167 164/181/168
f 159/9/8 163/182/169 162/183/167 161/184/166
f 160/10/9 164/185/168 162/186/167 163/187/169
f 165/27/7 168/188/170 169/189/171 171/190/172
f 166/16/15 170/191/173 169/192/171 168/193/170
f 167/11/10 171/194/172 169/195/171 170/196/173
f 172/20/19 175/197/174 176/198/175 178/199/176
f 173/17/16 177/200/177 176/198/175 175/197/174
f 174/25/22 178/199/176 176/198/175 177/201/177
f 179/22/21 182/202/178 183/203/179 185/204/180
f 180/3/3 184/205/181 183/203/179 182/206/178
f 181/21/20 185/207/180 183/203/179 184/205/181
f 153/1/1 158/4/4 164/181/168 157/176/163
f 157/172/163 164/185/168 160/10/9 151/13/12
f 137/2/2 153/1/1 156/178/165 140/155/151
f 140/160/151 156/174/165 152/173/164 138/158/154
f 132/19/18 139/18/17 142/159/155 136/152/149
f 136/152/149 142/159/155 138/158/154 130/149/146
f 159/9/8 165/8/7 171/208/172 163/182/169
f 163/187/169 171/194/172 167/11/10 160/10/9
f 174/25/22 179/24/21 185/207/180 178/199/176
f 178/199/176 185/207/180 181/21/20 172/20/19
f 144/161/156 152/173/164 154/170/161 147/162/157
f 147/162/157 154/170/161 151/13/12 145/12/11
f 173/17/16 166/16/15 168/193/170 177/200/177
f 177/209/177 168/188/170 165/27/7 174/26/22
f 131/14/13 173/17/16 175/197/174 135/153/150
f 135/153/150 175/197/174 172/20/19 132/19/18
f 158/4/4 180/3/3 182/206/178 161/179/166
f 161/210/166 182/202/178 179/22/21 159/9/8
f 166/16/15 146/15/14 149/169/160 170/191/173
f 170/196/173 149/165/160 145/12/11 167/11/10
f 146/15/14 131/14/13 133/154/147 150/167/159
f 150/164/159 133/150/147 130/149/146 144/161/156
f 180/3/3 137/2/2 143/157/153 184/205/181
f 184/205/181 143/157/153 139/18/17 181/21/20
f 152/173/164 144/161/156 130/149/146 138/158/154
usemtl Screen
f 121/28/26 21/29/27 10/30/28 39/31/29
f 40/32/30 11/33/31 13/34/32 49/35/33
f 49/35/33 13/34/32 14/36/34 58/37/35
f 58/37/35 14/36/34 15/38/36 67/39/37
f 67/39/37 15/38/36 16/40/38 76/41/39
f 76/41/39 16/40/38 17/42/40 85/43/41
f 85/43/41 17/42/40 18/44/42 94/45/43
f 94/45/43 18/44/42 19/46/44 103/47/45
f 103/47/45 19/46/44 20/48/46 112/49/47
f 112/49/47 20/48/46 21/29/27 121/28/26
f 23/50/48 120/51/49 129/52/50 22/53/51
f 120/51/49 119/54/52 128/55/53 129/52/50
f 119/54/52 118/56/54 127/57/55 128/55/53
f 118/56/54 117/58/56 126/59/57 127/57/55
f 117/58/56 116/60/58 125/61/59 126/59/57
f 116/60/58 115/62/60 124/63/61 125/61/59
f 115/62/60 114/64/62 123/65/63 124/63/61
f 114/64/62 113/66/64 122/67/65 123/65/63
f 113/66/64 112/49/47 121/28/26 122/67/65
f 24/68/66 111/69/67 120/51/49 23/50/48
f 111/69/67 110/70/68 119/54/52 120/51/49
f 110/70/68 109/71/69 118/56/54 119/54/52
f 109/71/69 108/72/70 117/58/56 118/56/54
f 108/72/70 107/73/71 116/60/58 117/58/56
f 107/73/71 106/74/72 115/62/60 116/60/58
f 106/74/72 105/75/73 114/64/62 115/62/60
f 105/75/73 104/76/74 113/66/64 114/64/62
f 104/76/74 103/47/45 112/49/47 113/66/64
f 25/77/75 102/78/76 111/69/67 24/68/66
f 102/78/76 101/79/77 110/70/68 111/69/67
f 101/79/77 100/80/78 109/71/69 110/70/68
f 100/80/78 99/81/79 108/72/70 109/71/69
f 99/81/79 98/82/80 107/73/71 108/72/70
f 98/82/80 97/83/81 106/74/72 107/73/71
f 97/83/81 96/84/82 105/75/73 106/74/72
f 96/84/82 95/85/83 104/76/74 105/75/73
f 95/85/83 94/45/43 103/47/45 104/76/74
f 26/86/84 93/87/85 102/78/76 25/77/75
f 93/87/85 92/88/86 101/79/77 102/78/76
f 92/88/86 91/89/87 100/80/78 101/79/77
f 91/89/87 90/90/88 99/81/79 100/80/78
f 90/90/88 89/91/6 98/82/80 99/81/79
f 89/91/6 88/92/89 97/83/81 98/82/80
f 88/92/89 87/93/90 96/84/82 97/83/81
f 87/93/90 86/94/91 95/85/83 96/84/82
f 86/94/91 85/43/41 94/45/43 95/85/83
f 27/95/92 84/96/93 93/87/85 26/86/84
f 84/96/93 83/97/94 92/88/86 93/87/85
f 83/97/94 82/98/95 91/89/87 92/88/86
f 82/98/95 81/99/96 90/90/88 91/89/87
f 81/99/96 80/100/97 89/91/6 90/90/88
f 80/100/97 79/101/98 88/92/89 89/91/6
f 79/101/98 78/102/99 87/93/90 88/92/89
f 78/102/99 77/103/100 86/94/91 87/93/90
f 77/103/100 76/41/39 85/43/41 86/94/91
f 28/104/101 75/105/102 84/96/93 27/95/92
f 75/105/102 74/106/103 83/97/94 84/96/93
f 74/106/103 73/107/104 82/98/95 83/97/94
f 73/107/104 72/108/105 81/99/96 82/98/95
f 72/108/105 71/109/106 80/100/97 81/99/96
f 71/109/106 70/110/107 79/101/98 80/100/97
f 70/110/107 69/111/108 78/102/99 79/101/98
f 69/111/108 68/112/109 77/103/100 78/102/99
f 68/112/109 67/39/37 76/41/39 77/103/100
f 29/113/110 66/114/111 75/105/102 28/104/101
f 66/114/111 65/115/112 74/106/103 75/105/102
f 65/115/112 64/116/113 73/107/104 74/106/103
f 64/116/113 63/117/114 72/108/105 73/107/104
f 63/117/114 62/118/115 71/109/106 72/108/105
f 62/118/115 61/119/116 70/110/107 71/109/106
f 61/119/116 60/120/117 69/111/108 70/110/107
f 60/120/117 59/121/118 68/112/109 69/111/108
f 59/121/118 58/37/35 67/39/37 68/112/109
f 30/122/119 57/123/120 66/114/111 29/113/110
f 57/123/120 56/124/121 65/115/112 66/114/111
f 56/124/121 55/125/122 64/116/113 65/115/112
f 55/125/122 54/126/123 63/117/114 64/116/113
f 54/126/123 53/127/124 62/118/115 63/117/114
f 53/127/124 52/128/125 61/119/116 62/118/115
f 52/128/125 51/129/126 60/120/117 61/119/116
f 51/129/126 50/130/127 59/121/118 60/120/117
f 50/130/127 49/35/33 58/37/35 59/121/118
f 12/131/128 48/132/129 57/123/120 30/122/119
f 48/132/129 47/133/130 56/124/121 57/123/120
f 47/133/130 46/134/131 55/125/122 56/124/121
f 46/134/131 45/135/132 54/126/123 55/125/122
f 45/135/132 44/136/133 53/127/124 54/126/123
f 44/136/133 43/137/134 52/128/125 53/127/124
f 43/137/134 42/138/135 51/129/126 52/128/125
f 42/138/135 41/139/136 50/130/127 51/129/126
f 41/139/136 40/32/30 49/35/33 50/130/127
f 22/53/51 129/52/50 31/140/137 9/141/138
f 129/52/50 128/55/53 32/142/139 31/140/137
f 128/55/53 127/57/55 33/143/140 32/142/139
f 127/57/55 126/59/57 34/144/141 33/143/140
f 126/59/57 125/61/59 35/145/142 34/144/141
f 125/61/59 124/63/61 36/146/143 35/145/142
f 124/63/61 123/65/63 37/147/144 36/146/143
f 123/65/63 122/67/65 38/148/145 37/147/144
f 122/67/65 121/28/26 39/31/29 38/148/145
