<?xml version="1.0" encoding="UTF-8" standalone="no"?>
<svg
   height="16"
   viewBox="0 0 16 16"
   width="16"
   version="1.1"
   id="svg1"
   sodipodi:docname="RigidBody3DPlus.svg"
   inkscape:version="1.3.2 (091e20e, 2023-11-25, custom)"
   xmlns:inkscape="http://www.inkscape.org/namespaces/inkscape"
   xmlns:sodipodi="http://sodipodi.sourceforge.net/DTD/sodipodi-0.dtd"
   xmlns="http://www.w3.org/2000/svg"
   xmlns:svg="http://www.w3.org/2000/svg">
  <defs
     id="defs1" />
  <sodipodi:namedview
     id="namedview1"
     pagecolor="#505050"
     bordercolor="#ffffff"
     borderopacity="1"
     inkscape:showpageshadow="false"
     inkscape:pageopacity="0"
     inkscape:pagecheckerboard="true"
     inkscape:deskcolor="#505050"
     shape-rendering="auto"
     inkscape:clip-to-page="false"
     labelstyle="default"
     showborder="true"
     inkscape:zoom="36.283417"
     inkscape:cx="8.1028753"
     inkscape:cy="8.4473853"
     inkscape:window-width="1920"
     inkscape:window-height="1017"
     inkscape:window-x="-8"
     inkscape:window-y="-8"
     inkscape:window-maximized="1"
     inkscape:current-layer="svg1">
    <sodipodi:guide
       position="0,16"
       orientation="0,16"
       id="guide4"
       inkscape:locked="false" />
    <sodipodi:guide
       position="16,16"
       orientation="16,0"
       id="guide5"
       inkscape:locked="false" />
    <sodipodi:guide
       position="16,0"
       orientation="0,-16"
       id="guide6"
       inkscape:locked="false" />
    <sodipodi:guide
       position="0,0"
       orientation="-16,0"
       id="guide7"
       inkscape:locked="false" />
  </sodipodi:namedview>
  <path
     d="m 7.0060901,0.02557856 a 7,7 0 0 0 0,14.00000044 7,7 0 0 0 0,-14.00000044 z m 1.951,1.33400004 a 6,6 0 0 1 4.0499999,5.666 H 6.0070901 a 2,2 0 0 0 -0.95,-1.7 c 1.346,-2.029 2.604,-3.263 3.9,-3.967 z m -6.828,2.18 c 0.146,0.65 0.358,1.283 0.684,1.884 a 2,2 0 0 0 -0.807,1.602 h -1 a 6,6 0 0 1 1.123,-3.486 z m 0.677,5.086 a 2,2 0 0 0 2.4,0 c 1.472,2.0270004 2.728,3.2640004 3.8,4.0000004 a 6,6 0 0 1 -7.15,-2.5 c 0.25,-0.6000004 0.5,-1.0000004 0.95,-1.5000004 z"
     fill="#fc7f7f"
     id="path1" />
  <text
     xml:space="preserve"
     style="font-style:normal;font-variant:normal;font-weight:normal;font-stretch:normal;font-size:12px;font-family:monofur;-inkscape-font-specification:'monofur, Normal';font-variant-ligatures:normal;font-variant-caps:normal;font-variant-numeric:normal;font-variant-east-asian:normal;fill:#fc7f7f;fill-opacity:1;image-rendering:auto"
     x="10.387332"
     y="16.565165"
     id="text7"><tspan
       sodipodi:role="line"
       id="tspan7"
       x="10.387332"
       y="16.565165">+</tspan></text>
</svg>
